<svg width="124" height="39" viewBox="0 0 124 39" fill="none" xmlns="http://www.w3.org/2000/svg">
<g clip-path="url(#clip0_53_6)">
<path d="M63.901 3.18213L62.9081 5.56094C62.4378 6.67731 61.3508 7.41808 60.1279 7.41808H56.543L57.4418 5.10187C57.8912 3.94377 59.0096 3.18213 60.2429 3.18213H63.901Z" fill="#F41919"/>
<path d="M7.04448 14.2311H11.8941L10.2114 18.5401H7.04448V30.2151H1.83951V18.5401H0V14.2311H1.83951V6.5C1.83951 2.56661 4.52561 0 8.50772 0C10.2009 0 11.8418 0.271268 13.0647 0.845104L11.6014 4.58026C11.1625 4.50722 10.6921 4.48636 10.1486 4.48636C8.30914 4.47592 7.04448 5.58186 7.04448 7.30337V14.2311Z" fill="black"/>
<path d="M30.8732 9.59868L30.7583 12.6974C29.3055 10.5168 27.0061 9.21265 23.8288 9.21265C18.2371 9.21265 13.9414 13.5321 13.9414 20.0008C13.9414 26.3547 18.2371 30.5907 23.8288 30.5907C27.0061 30.5907 29.3055 29.2969 30.7583 27.1163L30.8732 30.2151H35.8901V9.59868H30.8732ZM25.0098 26.1147C21.6025 26.1147 19.3345 23.6316 19.3345 19.9277C19.3345 16.1821 21.6025 13.6573 25.0098 13.6573C28.3857 13.6573 30.6746 16.1821 30.6746 19.886C30.6851 23.6316 28.3857 26.1147 25.0098 26.1147Z" fill="black"/>
<path d="M61.2996 9.59863L52.7082 30.215H47.5033L38.7656 9.59863H44.4723L50.1058 24.2784L55.8124 9.59863H61.2996Z" fill="black"/>
<path d="M97.2947 9.59863V21.7222C97.2947 24.3619 95.5388 26.1147 92.8945 26.1147C90.2084 26.1147 88.4107 24.3619 88.4107 21.7222V9.59863H83.1953V22.5256C83.1953 27.3771 86.3726 30.5906 91.0446 30.5906C93.5739 30.5906 95.8001 29.6412 97.2843 27.8362V28.2222C97.2843 32.0408 94.7967 34.5344 91.1177 34.5344H91.0132L89.2051 38.8747C89.8635 38.9582 90.5429 38.9999 91.2327 38.9999C98.0159 38.9999 102.5 34.7535 102.5 28.2535V9.59863H97.2947Z" fill="black"/>
<path d="M116.945 17.935L115.221 17.4342C113.423 16.9751 112.117 16.4012 112.117 15.1805C112.117 13.9911 113.423 13.313 115.294 13.313C116.287 13.313 117.249 13.4382 118.189 13.6886L119.694 9.83865C118.273 9.42131 116.684 9.21265 114.949 9.21265C110.047 9.21265 106.828 11.9253 106.828 16.0256C106.828 19.2809 109.201 20.6163 112.692 21.5345L114.416 21.9935C116.486 22.5256 117.938 23.2143 117.938 24.4767C117.938 25.7391 116.632 26.5425 114.719 26.5425C112.692 26.5425 110.737 26.1669 108.783 25.0088L106.828 28.1492C108.699 29.7873 111.5 30.5907 114.636 30.5907C119.809 30.5907 123.258 27.9927 123.258 24.0907C123.269 20.4598 120.468 18.8531 116.945 17.935Z" fill="black"/>
<path d="M72.9337 17.935L71.2092 17.4342C69.4115 16.9751 68.105 16.4012 68.105 15.1805C68.105 13.9911 69.4115 13.313 71.2823 13.313C72.2752 13.313 73.2368 13.4382 74.1775 13.6886L75.6825 9.83865C74.2611 9.42131 72.6724 9.21265 70.9374 9.21265C66.0355 9.21265 62.8164 11.9253 62.8164 16.0256C62.8164 19.2809 65.189 20.6163 68.6798 21.5345L70.4044 21.9935C72.4738 22.5256 73.9266 23.2143 73.9266 24.4767C73.9266 25.7391 72.6201 26.5425 70.7075 26.5425C68.6798 26.5425 66.7254 26.1669 64.7709 25.0088L62.8164 28.1492C64.6873 29.7873 67.4883 30.5907 70.6239 30.5907C75.7975 30.5907 79.2465 27.9927 79.2465 24.0907C79.257 20.4598 76.4559 18.8531 72.9337 17.935Z" fill="black"/>
</g>
<defs>
<clipPath id="clip0_53_6">
<rect width="123.268" height="39" fill="white"/>
</clipPath>
</defs>
</svg>
